<svg xmlns="http://www.w3.org/2000/svg" viewBox="0 0 80 75.75"><defs><style>.cls-1{fill:#eed9ff;}</style></defs><g id="Layer_2" data-name="Layer 2"><g id="Card_Icon" data-name="Card Icon"><path class="cls-1" d="M26.62,69.5,15.69,71.61a3.85,3.85,0,0,1-4.49-3L.07,10.92a3.83,3.83,0,0,1,3-4.49l33-6.36a3.85,3.85,0,0,1,4,1.84,6.28,6.28,0,0,0-2.83,4L24.34,63.12a6.29,6.29,0,0,0,2.28,6.38Z"/><path class="cls-1" d="M48.64,65.24,31.21,68.61l-1.57-.36a3.84,3.84,0,0,1-2.9-4.58l13-57.26a3.79,3.79,0,0,1,1.12-1.95L51.68,60.75A3.82,3.82,0,0,1,48.64,65.24Z"/><path class="cls-1" d="M79.9,15.5,67,72.76a3.85,3.85,0,0,1-4.59,2.9l-31.16-7-1.57-.36a3.84,3.84,0,0,1-2.9-4.58l13-57.26a3.85,3.85,0,0,1,4.58-2.9L77,10.91A3.83,3.83,0,0,1,79.9,15.5Z"/><path class="cls-1" d="M79.9,15.5,67,72.76a3.85,3.85,0,0,1-4.59,2.9l-31.16-7-1.57-.36a3.84,3.84,0,0,1-2.9-4.58l13-57.26a3.85,3.85,0,0,1,4.58-2.9L77,10.91A3.83,3.83,0,0,1,79.9,15.5Z"/></g></g></svg>